# xmcd
#
# Track frame offsets: 
#        150
#        23960
#        50000
#        67220
#        88173
#        105443
#        128183
#        152288
#        178853
#        199742
#        222893
#        242805
#
# Disc length: 3455 seconds
#
# Revision: 1
# Processed by: cddbd v1.5.1PL2 Copyright (c) Steve Scherf et al.
# Submitted via: ExactAudioCopy v0.95b4
#
DISCID=aa0d7d0c
DTITLE=Gerry Mulligan - The Complete Verve Gerry Mulligan Concert Jazz
DTITLE=Band Sessions Disc 1
DYEAR=1960
DGENRE=Jazz
TTITLE0=Sweet And Slow
TTITLE1=Bweebida Bobbida
TTITLE2=Manoir de Mes Rêves (Django's Castle)
TTITLE3=You Took Advantage Of Me
TTITLE4=Out Of This World
TTITLE5=My Funny Valentine
TTITLE6=Broadway
TTITLE7=I'm Gonna Go Fishin'
TTITLE8=I Know, Don't Know How
TTITLE9=Barbara's Theme
TTITLE10=Sweet And Slow [First Version]
TTITLE11=Out Of This World [First Version]
EXTD=YEAR: 1960
EXTT0=
EXTT1=
EXTT2=
EXTT3=
EXTT4=
EXTT5=
EXTT6=
EXTT7=
EXTT8=
EXTT9=
EXTT10=
EXTT11=
PLAYORDER=
